<svg xmlns="http://www.w3.org/2000/svg" width="18" height="18" fill="none" viewBox="0 0 18 18">
  <path fill="#182359" d="M9 .025a9 9 0 0 0-2.845 17.54c.45.082.614-.196.614-.434 0-.214-.007-.78-.012-1.53-2.503.543-3.031-1.207-3.031-1.207-.41-1.04-1-1.317-1-1.317-.817-.558.062-.547.062-.547.903.064 1.378.928 1.378.928.803 1.375 2.107.978 2.62.747.082-.581.314-.978.571-1.203-1.998-.227-4.1-1-4.1-4.448 0-.982.351-1.786.927-2.415-.093-.227-.402-1.143.089-2.382 0 0 .755-.242 2.474.923A8.62 8.62 0 0 1 9 4.377a8.63 8.63 0 0 1 2.253.303c1.719-1.165 2.473-.923 2.473-.923.491 1.24.182 2.155.09 2.382.577.629.925 1.433.925 2.415 0 3.458-2.105 4.219-4.11 4.441.323.278.611.827.611 1.667 0 1.203-.01 2.174-.01 2.469 0 .24.162.52.618.433A9 9 0 0 0 9 .024Z"/>
</svg>