<svg xmlns="http://www.w3.org/2000/svg" width="18" height="18" fill="none" viewBox="0 0 18 18">
  <path fill="#4285F4" d="M18 8.96c0-.68-.06-1.333-.17-1.96H9v3.706h5.045a4.414 4.414 0 0 1-1.87 2.89V16h3.03C16.977 14.332 18 11.877 18 8.96Z"/>
  <path fill="#34A853" d="M9.043 18c2.43 0 4.468-.884 5.957-2.393l-2.909-2.478c-.806.593-1.837.943-3.048.943-2.344 0-4.328-1.737-5.036-4.072H1v2.56C2.48 15.786 5.525 18 9.043 18Z"/>
  <path fill="#FBBC05" d="M4 10.692A5.26 5.26 0 0 1 3.715 9c0-.587.103-1.158.285-1.692V5H.966a8.766 8.766 0 0 0 0 8L4 10.692Z"/>
  <path fill="#EA4335" d="M9.006 3.928c1.315 0 2.496.498 3.425 1.477L15 2.572C13.448.98 11.42 0 9.006 0 5.504 0 2.474 2.213 1 5.44L3.993 8c.705-2.334 2.68-4.072 5.013-4.072Z"/>
</svg>